<mxfile host="app.diagrams.net" modified="2023-06-13T08:11:31.342Z" agent="Mozilla/5.0 (Windows NT 10.0; Win64; x64; rv:109.0) Gecko/20100101 Firefox/114.0" etag="2I8PTZKOcUVuM2lA53fP" version="21.3.8" type="device">
  <diagram id="C5RBs43oDa-KdzZeNtuy" name="Page-1">
    <mxGraphModel dx="1707" dy="442" grid="1" gridSize="10" guides="1" tooltips="1" connect="1" arrows="1" fold="1" page="1" pageScale="1" pageWidth="827" pageHeight="1169" math="0" shadow="0">
      <root>
        <mxCell id="WIyWlLk6GJQsqaUBKTNV-0" />
        <mxCell id="WIyWlLk6GJQsqaUBKTNV-1" parent="WIyWlLk6GJQsqaUBKTNV-0" />
        <mxCell id="U0Fpm-apDjwtP07KhzZm-0" value="Model" style="shape=folder;fontStyle=1;spacingTop=10;tabWidth=40;tabHeight=14;tabPosition=left;html=1;whiteSpace=wrap;" parent="WIyWlLk6GJQsqaUBKTNV-1" vertex="1">
          <mxGeometry x="60" y="950" width="320" height="660" as="geometry" />
        </mxCell>
        <mxCell id="VUXAJalb4SLQPzfhnrvk-11" value="View" style="shape=folder;fontStyle=1;spacingTop=10;tabWidth=40;tabHeight=14;tabPosition=left;html=1;whiteSpace=wrap;" parent="WIyWlLk6GJQsqaUBKTNV-1" vertex="1">
          <mxGeometry x="30" y="30" width="680" height="720" as="geometry" />
        </mxCell>
        <mxCell id="VUXAJalb4SLQPzfhnrvk-13" value="&lt;p style=&quot;margin:0px;margin-top:4px;text-align:center;&quot;&gt;&lt;b&gt;Frame&lt;/b&gt;&lt;/p&gt;&lt;hr size=&quot;1&quot;&gt;&lt;p style=&quot;margin:0px;margin-left:4px;&quot;&gt;- initialPane: InitialPanel&lt;/p&gt;&lt;p style=&quot;margin:0px;margin-left:4px;&quot;&gt;- contentPane: Panel&lt;/p&gt;&lt;p style=&quot;margin:0px;margin-left:4px;&quot;&gt;- wordsPane: WordsPanel&lt;/p&gt;&lt;p style=&quot;margin:0px;margin-left:4px;&quot;&gt;- loadPane: LoadPanel&lt;/p&gt;&lt;p style=&quot;margin:0px;margin-left:4px;&quot;&gt;&lt;/p&gt;" style="verticalAlign=top;align=left;overflow=fill;fontSize=12;fontFamily=Helvetica;html=1;whiteSpace=wrap;" parent="WIyWlLk6GJQsqaUBKTNV-1" vertex="1">
          <mxGeometry x="55" y="350" width="250" height="100" as="geometry" />
        </mxCell>
        <mxCell id="VUXAJalb4SLQPzfhnrvk-14" value="&lt;p style=&quot;margin:0px;margin-top:4px;text-align:center;&quot;&gt;&lt;b&gt;InitialPanel&lt;/b&gt;&lt;/p&gt;&lt;hr size=&quot;1&quot;&gt;&lt;p style=&quot;margin:0px;margin-left:4px;&quot;&gt;- lblBenvenuto: JLabel&lt;/p&gt;&lt;p style=&quot;margin:0px;margin-left:4px;&quot;&gt;- lblInserisci: JLabel&lt;/p&gt;&lt;p style=&quot;margin:0px;margin-left:4px;&quot;&gt;- btnStart: JButton&lt;/p&gt;&lt;p style=&quot;margin:0px;margin-left:4px;&quot;&gt;- textField: JTextField&lt;br&gt;&lt;/p&gt;" style="verticalAlign=top;align=left;overflow=fill;fontSize=12;fontFamily=Helvetica;html=1;whiteSpace=wrap;" parent="WIyWlLk6GJQsqaUBKTNV-1" vertex="1">
          <mxGeometry x="460" y="70" width="160" height="100" as="geometry" />
        </mxCell>
        <mxCell id="VUXAJalb4SLQPzfhnrvk-15" value="&lt;p style=&quot;margin:0px;margin-top:4px;text-align:center;&quot;&gt;&lt;b&gt;WordsPanel&lt;/b&gt;&lt;/p&gt;&lt;hr size=&quot;1&quot;&gt;&lt;p style=&quot;margin:0px;margin-left:4px;&quot;&gt;- lbl: JLabel&lt;/p&gt;&lt;p style=&quot;margin:0px;margin-left:4px;&quot;&gt;- scrollPane: JScrollPane&lt;/p&gt;&lt;p style=&quot;margin:0px;margin-left:4px;&quot;&gt;- table: JTable&lt;/p&gt;&lt;p style=&quot;margin:0px;margin-left:4px;&quot;&gt;- btnIndietro: JButton&lt;br&gt;&lt;/p&gt;" style="verticalAlign=top;align=left;overflow=fill;fontSize=12;fontFamily=Helvetica;html=1;whiteSpace=wrap;" parent="WIyWlLk6GJQsqaUBKTNV-1" vertex="1">
          <mxGeometry x="408" y="450" width="280" height="90" as="geometry" />
        </mxCell>
        <mxCell id="VUXAJalb4SLQPzfhnrvk-16" value="&lt;p style=&quot;margin:0px;margin-top:4px;text-align:center;&quot;&gt;&lt;b&gt;LoadPanel&lt;/b&gt;&lt;/p&gt;&lt;hr size=&quot;1&quot;&gt;&lt;p style=&quot;margin:0px;margin-left:4px;&quot;&gt;- lbl: JLabel&lt;/p&gt;" style="verticalAlign=top;align=left;overflow=fill;fontSize=12;fontFamily=Helvetica;html=1;whiteSpace=wrap;" parent="WIyWlLk6GJQsqaUBKTNV-1" vertex="1">
          <mxGeometry x="461" y="640" width="160" height="50" as="geometry" />
        </mxCell>
        <mxCell id="VUXAJalb4SLQPzfhnrvk-17" value="&lt;p style=&quot;margin:0px;margin-top:4px;text-align:center;&quot;&gt;&lt;b&gt;Panel&lt;/b&gt;&lt;/p&gt;&lt;hr size=&quot;1&quot;&gt;&lt;p style=&quot;margin:0px;margin-left:4px;&quot;&gt;- lbl: JLabel&lt;/p&gt;&lt;p style=&quot;margin:0px;margin-left:4px;&quot;&gt;- buttonGroup: ButtonGroup&lt;/p&gt;&lt;p style=&quot;margin:0px;margin-left:4px;&quot;&gt;- rdbtnDownload: JRadioButton&lt;/p&gt;&lt;p style=&quot;margin:0px;margin-left:4px;&quot;&gt;- rdbtnTermini: JRadioButton&lt;/p&gt;&lt;p style=&quot;margin:0px;margin-left:4px;&quot;&gt;- rdbtnDownloadTermini: JRadioButton&lt;/p&gt;&lt;p style=&quot;margin:0px;margin-left:4px;&quot;&gt;- btnInvio: JButton&lt;/p&gt;" style="verticalAlign=top;align=left;overflow=fill;fontSize=12;fontFamily=Helvetica;html=1;whiteSpace=wrap;" parent="WIyWlLk6GJQsqaUBKTNV-1" vertex="1">
          <mxGeometry x="420" y="230" width="256" height="120" as="geometry" />
        </mxCell>
        <mxCell id="VUXAJalb4SLQPzfhnrvk-18" value="com.apiguardian" style="shape=folder;fontStyle=1;spacingTop=10;tabWidth=40;tabHeight=14;tabPosition=left;html=1;whiteSpace=wrap;" parent="WIyWlLk6GJQsqaUBKTNV-1" vertex="1">
          <mxGeometry x="1110" y="130" width="860" height="640" as="geometry" />
        </mxCell>
        <mxCell id="VUXAJalb4SLQPzfhnrvk-19" value="Article" style="swimlane;fontStyle=1;align=center;verticalAlign=top;childLayout=stackLayout;horizontal=1;startSize=26;horizontalStack=0;resizeParent=1;resizeParentMax=0;resizeLast=0;collapsible=1;marginBottom=0;whiteSpace=wrap;html=1;" parent="WIyWlLk6GJQsqaUBKTNV-1" vertex="1">
          <mxGeometry x="1190" y="310" width="160" height="80" as="geometry" />
        </mxCell>
        <mxCell id="VUXAJalb4SLQPzfhnrvk-20" value="&lt;div&gt;- id: String&lt;/div&gt;&lt;div&gt;- webTitle: String&lt;/div&gt;&lt;div&gt;- fields: Field&lt;br&gt;&lt;/div&gt;" style="text;strokeColor=none;fillColor=none;align=left;verticalAlign=top;spacingLeft=4;spacingRight=4;overflow=hidden;rotatable=0;points=[[0,0.5],[1,0.5]];portConstraint=eastwest;whiteSpace=wrap;html=1;" parent="VUXAJalb4SLQPzfhnrvk-19" vertex="1">
          <mxGeometry y="26" width="160" height="54" as="geometry" />
        </mxCell>
        <mxCell id="VUXAJalb4SLQPzfhnrvk-23" value="Field" style="swimlane;fontStyle=1;align=center;verticalAlign=top;childLayout=stackLayout;horizontal=1;startSize=26;horizontalStack=0;resizeParent=1;resizeParentMax=0;resizeLast=0;collapsible=1;marginBottom=0;whiteSpace=wrap;html=1;" parent="WIyWlLk6GJQsqaUBKTNV-1" vertex="1">
          <mxGeometry x="1420" y="190" width="160" height="52" as="geometry" />
        </mxCell>
        <mxCell id="VUXAJalb4SLQPzfhnrvk-24" value="- bodyText: String" style="text;strokeColor=none;fillColor=none;align=left;verticalAlign=top;spacingLeft=4;spacingRight=4;overflow=hidden;rotatable=0;points=[[0,0.5],[1,0.5]];portConstraint=eastwest;whiteSpace=wrap;html=1;" parent="VUXAJalb4SLQPzfhnrvk-23" vertex="1">
          <mxGeometry y="26" width="160" height="26" as="geometry" />
        </mxCell>
        <mxCell id="VUXAJalb4SLQPzfhnrvk-27" value="Word" style="swimlane;fontStyle=1;align=center;verticalAlign=top;childLayout=stackLayout;horizontal=1;startSize=26;horizontalStack=0;resizeParent=1;resizeParentMax=0;resizeLast=0;collapsible=1;marginBottom=0;whiteSpace=wrap;html=1;" parent="WIyWlLk6GJQsqaUBKTNV-1" vertex="1">
          <mxGeometry x="135" y="1040" width="170" height="70" as="geometry" />
        </mxCell>
        <mxCell id="VUXAJalb4SLQPzfhnrvk-28" value="&lt;div&gt;- word: String&lt;/div&gt;&lt;div&gt;- value: int&lt;br&gt;&lt;/div&gt;" style="text;strokeColor=none;fillColor=none;align=left;verticalAlign=top;spacingLeft=4;spacingRight=4;overflow=hidden;rotatable=0;points=[[0,0.5],[1,0.5]];portConstraint=eastwest;whiteSpace=wrap;html=1;" parent="VUXAJalb4SLQPzfhnrvk-27" vertex="1">
          <mxGeometry y="26" width="170" height="44" as="geometry" />
        </mxCell>
        <mxCell id="VUXAJalb4SLQPzfhnrvk-31" value="Response" style="swimlane;fontStyle=1;align=center;verticalAlign=top;childLayout=stackLayout;horizontal=1;startSize=26;horizontalStack=0;resizeParent=1;resizeParentMax=0;resizeLast=0;collapsible=1;marginBottom=0;whiteSpace=wrap;html=1;" parent="WIyWlLk6GJQsqaUBKTNV-1" vertex="1">
          <mxGeometry x="1740" y="200" width="160" height="170" as="geometry" />
        </mxCell>
        <mxCell id="VUXAJalb4SLQPzfhnrvk-32" value="&lt;div&gt;- status: String&lt;/div&gt;&lt;div&gt;- userTier: String&lt;/div&gt;&lt;div&gt;- total: int&lt;/div&gt;&lt;div&gt;- startIndex: int&lt;/div&gt;&lt;div&gt;- pageSize: int&lt;/div&gt;&lt;div&gt;- currentPage: int&lt;/div&gt;&lt;div&gt;- pages: int&lt;/div&gt;&lt;div&gt;- orderBy: String&lt;/div&gt;&lt;div&gt;- results: Article[]&lt;br&gt;&lt;/div&gt;" style="text;strokeColor=none;fillColor=none;align=left;verticalAlign=top;spacingLeft=4;spacingRight=4;overflow=hidden;rotatable=0;points=[[0,0.5],[1,0.5]];portConstraint=eastwest;whiteSpace=wrap;html=1;" parent="VUXAJalb4SLQPzfhnrvk-31" vertex="1">
          <mxGeometry y="26" width="160" height="144" as="geometry" />
        </mxCell>
        <mxCell id="VUXAJalb4SLQPzfhnrvk-35" value="Control" style="shape=folder;fontStyle=1;spacingTop=10;tabWidth=40;tabHeight=14;tabPosition=left;html=1;whiteSpace=wrap;" parent="WIyWlLk6GJQsqaUBKTNV-1" vertex="1">
          <mxGeometry x="600" y="1040" width="1270" height="630" as="geometry" />
        </mxCell>
        <mxCell id="VUXAJalb4SLQPzfhnrvk-36" value="ArticleList" style="swimlane;fontStyle=1;align=center;verticalAlign=top;childLayout=stackLayout;horizontal=1;startSize=26;horizontalStack=0;resizeParent=1;resizeParentMax=0;resizeLast=0;collapsible=1;marginBottom=0;whiteSpace=wrap;html=1;" parent="WIyWlLk6GJQsqaUBKTNV-1" vertex="1">
          <mxGeometry x="640" y="1380" width="350" height="52" as="geometry" />
        </mxCell>
        <mxCell id="VUXAJalb4SLQPzfhnrvk-37" value="+ ARTICLE_SIZE: int" style="text;strokeColor=none;fillColor=none;align=left;verticalAlign=top;spacingLeft=4;spacingRight=4;overflow=hidden;rotatable=0;points=[[0,0.5],[1,0.5]];portConstraint=eastwest;whiteSpace=wrap;html=1;" parent="VUXAJalb4SLQPzfhnrvk-36" vertex="1">
          <mxGeometry y="26" width="350" height="26" as="geometry" />
        </mxCell>
        <mxCell id="VUXAJalb4SLQPzfhnrvk-40" value="Control" style="swimlane;fontStyle=1;align=center;verticalAlign=top;childLayout=stackLayout;horizontal=1;startSize=26;horizontalStack=0;resizeParent=1;resizeParentMax=0;resizeLast=0;collapsible=1;marginBottom=0;whiteSpace=wrap;html=1;" parent="WIyWlLk6GJQsqaUBKTNV-1" vertex="1">
          <mxGeometry x="950.65" y="1110" width="250" height="70" as="geometry" />
        </mxCell>
        <mxCell id="VUXAJalb4SLQPzfhnrvk-41" value="&lt;div&gt;- frame: Frame&lt;/div&gt;&lt;div&gt;- guardianResponse: GuardianContentApi &lt;/div&gt;" style="text;strokeColor=none;fillColor=none;align=left;verticalAlign=top;spacingLeft=4;spacingRight=4;overflow=hidden;rotatable=0;points=[[0,0.5],[1,0.5]];portConstraint=eastwest;whiteSpace=wrap;html=1;" parent="VUXAJalb4SLQPzfhnrvk-40" vertex="1">
          <mxGeometry y="26" width="250" height="44" as="geometry" />
        </mxCell>
        <mxCell id="VUXAJalb4SLQPzfhnrvk-44" value="Deserializzatore" style="swimlane;fontStyle=1;align=center;verticalAlign=top;childLayout=stackLayout;horizontal=1;startSize=26;horizontalStack=0;resizeParent=1;resizeParentMax=0;resizeLast=0;collapsible=1;marginBottom=0;whiteSpace=wrap;html=1;" parent="WIyWlLk6GJQsqaUBKTNV-1" vertex="1">
          <mxGeometry x="1470" y="1480" width="330" height="70" as="geometry" />
        </mxCell>
        <mxCell id="VUXAJalb4SLQPzfhnrvk-45" value="&lt;div&gt;- NUMERO_ARTICOLI: int&lt;/div&gt;&lt;div&gt;- fileName: String&lt;/div&gt;" style="text;strokeColor=none;fillColor=none;align=left;verticalAlign=top;spacingLeft=4;spacingRight=4;overflow=hidden;rotatable=0;points=[[0,0.5],[1,0.5]];portConstraint=eastwest;whiteSpace=wrap;html=1;" parent="VUXAJalb4SLQPzfhnrvk-44" vertex="1">
          <mxGeometry y="26" width="330" height="44" as="geometry" />
        </mxCell>
        <mxCell id="VUXAJalb4SLQPzfhnrvk-48" value="ResponseWrapper" style="swimlane;fontStyle=1;align=center;verticalAlign=top;childLayout=stackLayout;horizontal=1;startSize=26;horizontalStack=0;resizeParent=1;resizeParentMax=0;resizeLast=0;collapsible=1;marginBottom=0;whiteSpace=wrap;html=1;" parent="WIyWlLk6GJQsqaUBKTNV-1" vertex="1">
          <mxGeometry x="1590" y="1220" width="200" height="52" as="geometry" />
        </mxCell>
        <mxCell id="VUXAJalb4SLQPzfhnrvk-49" value="&lt;div&gt;- response: Response&lt;/div&gt;" style="text;strokeColor=none;fillColor=none;align=left;verticalAlign=top;spacingLeft=4;spacingRight=4;overflow=hidden;rotatable=0;points=[[0,0.5],[1,0.5]];portConstraint=eastwest;whiteSpace=wrap;html=1;" parent="VUXAJalb4SLQPzfhnrvk-48" vertex="1">
          <mxGeometry y="26" width="200" height="26" as="geometry" />
        </mxCell>
        <mxCell id="VUXAJalb4SLQPzfhnrvk-52" value="Serializzatore" style="swimlane;fontStyle=1;align=center;verticalAlign=top;childLayout=stackLayout;horizontal=1;startSize=26;horizontalStack=0;resizeParent=1;resizeParentMax=0;resizeLast=0;collapsible=1;marginBottom=0;whiteSpace=wrap;html=1;" parent="WIyWlLk6GJQsqaUBKTNV-1" vertex="1">
          <mxGeometry x="1320" y="1180" width="160" height="80" as="geometry" />
        </mxCell>
        <mxCell id="VUXAJalb4SLQPzfhnrvk-53" value="&lt;div&gt;- out: FileOutputStream&lt;/div&gt;&lt;div&gt;- oos: ObjectMapper&lt;/div&gt;&lt;div&gt;- nomeFile: String&lt;br&gt;&lt;/div&gt;" style="text;strokeColor=none;fillColor=none;align=left;verticalAlign=top;spacingLeft=4;spacingRight=4;overflow=hidden;rotatable=0;points=[[0,0.5],[1,0.5]];portConstraint=eastwest;whiteSpace=wrap;html=1;" parent="VUXAJalb4SLQPzfhnrvk-52" vertex="1">
          <mxGeometry y="26" width="160" height="54" as="geometry" />
        </mxCell>
        <mxCell id="-JpxgbVJmfge6kv-dIbS-0" value="TxtManager" style="swimlane;fontStyle=1;align=center;verticalAlign=top;childLayout=stackLayout;horizontal=1;startSize=26;horizontalStack=0;resizeParent=1;resizeParentMax=0;resizeLast=0;collapsible=1;marginBottom=0;whiteSpace=wrap;html=1;" parent="WIyWlLk6GJQsqaUBKTNV-1" vertex="1">
          <mxGeometry x="1110" y="1480" width="240" height="70" as="geometry" />
        </mxCell>
        <mxCell id="-JpxgbVJmfge6kv-dIbS-1" value="&lt;div&gt;- NUMERO_PAROLE: int&lt;/div&gt;&lt;div&gt;- fileName: String&lt;/div&gt;" style="text;strokeColor=none;fillColor=none;align=left;verticalAlign=top;spacingLeft=4;spacingRight=4;overflow=hidden;rotatable=0;points=[[0,0.5],[1,0.5]];portConstraint=eastwest;whiteSpace=wrap;html=1;" parent="-JpxgbVJmfge6kv-dIbS-0" vertex="1">
          <mxGeometry y="26" width="240" height="44" as="geometry" />
        </mxCell>
        <mxCell id="-JpxgbVJmfge6kv-dIbS-4" value="GuardianContentApi" style="swimlane;fontStyle=1;align=center;verticalAlign=top;childLayout=stackLayout;horizontal=1;startSize=26;horizontalStack=0;resizeParent=1;resizeParentMax=0;resizeLast=0;collapsible=1;marginBottom=0;whiteSpace=wrap;html=1;" parent="WIyWlLk6GJQsqaUBKTNV-1" vertex="1">
          <mxGeometry x="1440" y="470" width="240" height="170" as="geometry" />
        </mxCell>
        <mxCell id="-JpxgbVJmfge6kv-dIbS-5" value="&lt;div&gt;- PAGE_SIZE: int&lt;/div&gt;&lt;div&gt;- TOTAL_ARTICLE: int&lt;br&gt;&lt;/div&gt;&lt;div&gt;-&amp;nbsp;TARGET_URL: String&lt;/div&gt;&lt;div&gt;-&amp;nbsp;dateFormat:&amp;nbsp;SimpleDateFormat&lt;/div&gt;&lt;div&gt;- apiKey: String&lt;/div&gt;&lt;div&gt;-&amp;nbsp;section: String&lt;/div&gt;&lt;div&gt;- tag: String&lt;/div&gt;&lt;div&gt;- toDate: Date&lt;/div&gt;&lt;div&gt;-&amp;nbsp;fromDate: Date&lt;/div&gt;" style="text;strokeColor=none;fillColor=none;align=left;verticalAlign=top;spacingLeft=4;spacingRight=4;overflow=hidden;rotatable=0;points=[[0,0.5],[1,0.5]];portConstraint=eastwest;whiteSpace=wrap;html=1;" parent="-JpxgbVJmfge6kv-dIbS-4" vertex="1">
          <mxGeometry y="26" width="240" height="144" as="geometry" />
        </mxCell>
        <mxCell id="-JpxgbVJmfge6kv-dIbS-35" value="" style="endArrow=classic;html=1;rounded=0;exitX=0.75;exitY=0;exitDx=0;exitDy=0;entryX=0;entryY=0.5;entryDx=0;entryDy=0;" parent="WIyWlLk6GJQsqaUBKTNV-1" source="VUXAJalb4SLQPzfhnrvk-13" target="VUXAJalb4SLQPzfhnrvk-14" edge="1">
          <mxGeometry relative="1" as="geometry">
            <mxPoint x="560" y="420" as="sourcePoint" />
            <mxPoint x="720" y="420" as="targetPoint" />
          </mxGeometry>
        </mxCell>
        <mxCell id="-JpxgbVJmfge6kv-dIbS-36" value="Contiene" style="edgeLabel;resizable=0;html=1;align=center;verticalAlign=middle;" parent="-JpxgbVJmfge6kv-dIbS-35" connectable="0" vertex="1">
          <mxGeometry relative="1" as="geometry" />
        </mxCell>
        <mxCell id="-JpxgbVJmfge6kv-dIbS-37" value="1" style="edgeLabel;resizable=0;html=1;align=left;verticalAlign=bottom;" parent="-JpxgbVJmfge6kv-dIbS-35" connectable="0" vertex="1">
          <mxGeometry x="-1" relative="1" as="geometry" />
        </mxCell>
        <mxCell id="-JpxgbVJmfge6kv-dIbS-38" value="1" style="edgeLabel;resizable=0;html=1;align=right;verticalAlign=bottom;" parent="-JpxgbVJmfge6kv-dIbS-35" connectable="0" vertex="1">
          <mxGeometry x="1" relative="1" as="geometry" />
        </mxCell>
        <mxCell id="-JpxgbVJmfge6kv-dIbS-39" value="" style="endArrow=classic;html=1;rounded=0;exitX=1;exitY=0.25;exitDx=0;exitDy=0;entryX=0;entryY=0.25;entryDx=0;entryDy=0;" parent="WIyWlLk6GJQsqaUBKTNV-1" source="VUXAJalb4SLQPzfhnrvk-13" target="VUXAJalb4SLQPzfhnrvk-17" edge="1">
          <mxGeometry relative="1" as="geometry">
            <mxPoint x="560" y="420" as="sourcePoint" />
            <mxPoint x="720" y="420" as="targetPoint" />
          </mxGeometry>
        </mxCell>
        <mxCell id="-JpxgbVJmfge6kv-dIbS-40" value="Contiene" style="edgeLabel;resizable=0;html=1;align=center;verticalAlign=middle;" parent="-JpxgbVJmfge6kv-dIbS-39" connectable="0" vertex="1">
          <mxGeometry relative="1" as="geometry" />
        </mxCell>
        <mxCell id="-JpxgbVJmfge6kv-dIbS-41" value="1" style="edgeLabel;resizable=0;html=1;align=left;verticalAlign=bottom;" parent="-JpxgbVJmfge6kv-dIbS-39" connectable="0" vertex="1">
          <mxGeometry x="-1" relative="1" as="geometry" />
        </mxCell>
        <mxCell id="-JpxgbVJmfge6kv-dIbS-42" value="1" style="edgeLabel;resizable=0;html=1;align=right;verticalAlign=bottom;" parent="-JpxgbVJmfge6kv-dIbS-39" connectable="0" vertex="1">
          <mxGeometry x="1" relative="1" as="geometry" />
        </mxCell>
        <mxCell id="-JpxgbVJmfge6kv-dIbS-43" value="" style="endArrow=classic;html=1;rounded=0;exitX=1;exitY=0.75;exitDx=0;exitDy=0;entryX=0;entryY=0.5;entryDx=0;entryDy=0;" parent="WIyWlLk6GJQsqaUBKTNV-1" source="VUXAJalb4SLQPzfhnrvk-13" target="VUXAJalb4SLQPzfhnrvk-15" edge="1">
          <mxGeometry relative="1" as="geometry">
            <mxPoint x="560" y="420" as="sourcePoint" />
            <mxPoint x="720" y="420" as="targetPoint" />
          </mxGeometry>
        </mxCell>
        <mxCell id="-JpxgbVJmfge6kv-dIbS-44" value="Contiene" style="edgeLabel;resizable=0;html=1;align=center;verticalAlign=middle;" parent="-JpxgbVJmfge6kv-dIbS-43" connectable="0" vertex="1">
          <mxGeometry relative="1" as="geometry" />
        </mxCell>
        <mxCell id="-JpxgbVJmfge6kv-dIbS-45" value="1" style="edgeLabel;resizable=0;html=1;align=left;verticalAlign=bottom;" parent="-JpxgbVJmfge6kv-dIbS-43" connectable="0" vertex="1">
          <mxGeometry x="-1" relative="1" as="geometry" />
        </mxCell>
        <mxCell id="-JpxgbVJmfge6kv-dIbS-46" value="1" style="edgeLabel;resizable=0;html=1;align=right;verticalAlign=bottom;" parent="-JpxgbVJmfge6kv-dIbS-43" connectable="0" vertex="1">
          <mxGeometry x="1" relative="1" as="geometry">
            <mxPoint x="-9" y="-5" as="offset" />
          </mxGeometry>
        </mxCell>
        <mxCell id="-JpxgbVJmfge6kv-dIbS-47" value="" style="endArrow=classic;html=1;rounded=0;exitX=0.75;exitY=1;exitDx=0;exitDy=0;entryX=0;entryY=0.5;entryDx=0;entryDy=0;" parent="WIyWlLk6GJQsqaUBKTNV-1" source="VUXAJalb4SLQPzfhnrvk-13" target="VUXAJalb4SLQPzfhnrvk-16" edge="1">
          <mxGeometry relative="1" as="geometry">
            <mxPoint x="560" y="420" as="sourcePoint" />
            <mxPoint x="720" y="420" as="targetPoint" />
          </mxGeometry>
        </mxCell>
        <mxCell id="-JpxgbVJmfge6kv-dIbS-48" value="Contiene" style="edgeLabel;resizable=0;html=1;align=center;verticalAlign=middle;" parent="-JpxgbVJmfge6kv-dIbS-47" connectable="0" vertex="1">
          <mxGeometry relative="1" as="geometry" />
        </mxCell>
        <mxCell id="-JpxgbVJmfge6kv-dIbS-49" value="1" style="edgeLabel;resizable=0;html=1;align=left;verticalAlign=bottom;" parent="-JpxgbVJmfge6kv-dIbS-47" connectable="0" vertex="1">
          <mxGeometry x="-1" relative="1" as="geometry">
            <mxPoint y="20" as="offset" />
          </mxGeometry>
        </mxCell>
        <mxCell id="-JpxgbVJmfge6kv-dIbS-50" value="1" style="edgeLabel;resizable=0;html=1;align=right;verticalAlign=bottom;" parent="-JpxgbVJmfge6kv-dIbS-47" connectable="0" vertex="1">
          <mxGeometry x="1" relative="1" as="geometry">
            <mxPoint x="-11" as="offset" />
          </mxGeometry>
        </mxCell>
        <mxCell id="-JpxgbVJmfge6kv-dIbS-51" value="" style="endArrow=classic;html=1;rounded=0;exitX=0.75;exitY=0;exitDx=0;exitDy=0;entryX=0;entryY=0.5;entryDx=0;entryDy=0;" parent="WIyWlLk6GJQsqaUBKTNV-1" source="VUXAJalb4SLQPzfhnrvk-40" target="-JpxgbVJmfge6kv-dIbS-5" edge="1">
          <mxGeometry relative="1" as="geometry">
            <mxPoint x="1170" y="1370" as="sourcePoint" />
            <mxPoint x="1330" y="1370" as="targetPoint" />
          </mxGeometry>
        </mxCell>
        <mxCell id="-JpxgbVJmfge6kv-dIbS-52" value="Utilizza" style="edgeLabel;resizable=0;html=1;align=center;verticalAlign=middle;" parent="-JpxgbVJmfge6kv-dIbS-51" connectable="0" vertex="1">
          <mxGeometry relative="1" as="geometry" />
        </mxCell>
        <mxCell id="-JpxgbVJmfge6kv-dIbS-53" value="1" style="edgeLabel;resizable=0;html=1;align=left;verticalAlign=bottom;" parent="-JpxgbVJmfge6kv-dIbS-51" connectable="0" vertex="1">
          <mxGeometry x="-1" relative="1" as="geometry">
            <mxPoint x="12" y="-12" as="offset" />
          </mxGeometry>
        </mxCell>
        <mxCell id="-JpxgbVJmfge6kv-dIbS-54" value="1" style="edgeLabel;resizable=0;html=1;align=right;verticalAlign=bottom;" parent="-JpxgbVJmfge6kv-dIbS-51" connectable="0" vertex="1">
          <mxGeometry x="1" relative="1" as="geometry">
            <mxPoint x="-13" y="-3" as="offset" />
          </mxGeometry>
        </mxCell>
        <mxCell id="-JpxgbVJmfge6kv-dIbS-55" value="" style="endArrow=classic;html=1;rounded=0;entryX=0.5;entryY=0;entryDx=0;entryDy=0;exitX=0.509;exitY=1.045;exitDx=0;exitDy=0;exitPerimeter=0;" parent="WIyWlLk6GJQsqaUBKTNV-1" source="VUXAJalb4SLQPzfhnrvk-41" target="-JpxgbVJmfge6kv-dIbS-0" edge="1">
          <mxGeometry relative="1" as="geometry">
            <mxPoint x="1097.35546875" y="1260" as="sourcePoint" />
            <mxPoint x="1330" y="1370" as="targetPoint" />
          </mxGeometry>
        </mxCell>
        <mxCell id="-JpxgbVJmfge6kv-dIbS-56" value="Usa" style="edgeLabel;resizable=0;html=1;align=center;verticalAlign=middle;" parent="-JpxgbVJmfge6kv-dIbS-55" connectable="0" vertex="1">
          <mxGeometry relative="1" as="geometry" />
        </mxCell>
        <mxCell id="-JpxgbVJmfge6kv-dIbS-57" value="1" style="edgeLabel;resizable=0;html=1;align=left;verticalAlign=bottom;" parent="-JpxgbVJmfge6kv-dIbS-55" connectable="0" vertex="1">
          <mxGeometry x="-1" relative="1" as="geometry">
            <mxPoint y="18" as="offset" />
          </mxGeometry>
        </mxCell>
        <mxCell id="-JpxgbVJmfge6kv-dIbS-58" value="0..2" style="edgeLabel;resizable=0;html=1;align=right;verticalAlign=bottom;" parent="-JpxgbVJmfge6kv-dIbS-55" connectable="0" vertex="1">
          <mxGeometry x="1" relative="1" as="geometry">
            <mxPoint x="-19" y="-10" as="offset" />
          </mxGeometry>
        </mxCell>
        <mxCell id="-JpxgbVJmfge6kv-dIbS-59" value="" style="endArrow=classic;html=1;rounded=0;exitX=1;exitY=0.5;exitDx=0;exitDy=0;entryX=0;entryY=0.5;entryDx=0;entryDy=0;" parent="WIyWlLk6GJQsqaUBKTNV-1" source="VUXAJalb4SLQPzfhnrvk-41" target="VUXAJalb4SLQPzfhnrvk-53" edge="1">
          <mxGeometry relative="1" as="geometry">
            <mxPoint x="1420.65" y="1362" as="sourcePoint" />
            <mxPoint x="1580.65" y="1362" as="targetPoint" />
          </mxGeometry>
        </mxCell>
        <mxCell id="-JpxgbVJmfge6kv-dIbS-60" value="Usa" style="edgeLabel;resizable=0;html=1;align=center;verticalAlign=middle;" parent="-JpxgbVJmfge6kv-dIbS-59" connectable="0" vertex="1">
          <mxGeometry relative="1" as="geometry" />
        </mxCell>
        <mxCell id="-JpxgbVJmfge6kv-dIbS-61" value="1" style="edgeLabel;resizable=0;html=1;align=left;verticalAlign=bottom;rotation=0;" parent="-JpxgbVJmfge6kv-dIbS-59" connectable="0" vertex="1">
          <mxGeometry x="-1" relative="1" as="geometry">
            <mxPoint x="2" y="16" as="offset" />
          </mxGeometry>
        </mxCell>
        <mxCell id="-JpxgbVJmfge6kv-dIbS-62" value="0..2" style="edgeLabel;resizable=0;html=1;align=right;verticalAlign=bottom;" parent="-JpxgbVJmfge6kv-dIbS-59" connectable="0" vertex="1">
          <mxGeometry x="1" relative="1" as="geometry">
            <mxPoint x="-10" y="-10" as="offset" />
          </mxGeometry>
        </mxCell>
        <mxCell id="-JpxgbVJmfge6kv-dIbS-63" value="" style="endArrow=classic;html=1;rounded=0;exitX=0.5;exitY=0;exitDx=0;exitDy=0;entryX=0.125;entryY=1;entryDx=0;entryDy=0;entryPerimeter=0;" parent="WIyWlLk6GJQsqaUBKTNV-1" source="VUXAJalb4SLQPzfhnrvk-40" target="VUXAJalb4SLQPzfhnrvk-20" edge="1">
          <mxGeometry relative="1" as="geometry">
            <mxPoint x="670" y="970" as="sourcePoint" />
            <mxPoint x="1218" y="512.0160000000001" as="targetPoint" />
          </mxGeometry>
        </mxCell>
        <mxCell id="-JpxgbVJmfge6kv-dIbS-64" value="Chiama" style="edgeLabel;resizable=0;html=1;align=center;verticalAlign=middle;" parent="-JpxgbVJmfge6kv-dIbS-63" connectable="0" vertex="1">
          <mxGeometry relative="1" as="geometry" />
        </mxCell>
        <mxCell id="-JpxgbVJmfge6kv-dIbS-65" value="1" style="edgeLabel;resizable=0;html=1;align=left;verticalAlign=bottom;" parent="-JpxgbVJmfge6kv-dIbS-63" connectable="0" vertex="1">
          <mxGeometry x="-1" relative="1" as="geometry" />
        </mxCell>
        <mxCell id="-JpxgbVJmfge6kv-dIbS-66" value="0..1000" style="edgeLabel;resizable=0;html=1;align=right;verticalAlign=bottom;" parent="-JpxgbVJmfge6kv-dIbS-63" connectable="0" vertex="1">
          <mxGeometry x="1" relative="1" as="geometry">
            <mxPoint x="-1" y="30" as="offset" />
          </mxGeometry>
        </mxCell>
        <mxCell id="-JpxgbVJmfge6kv-dIbS-67" value="" style="endArrow=classic;html=1;rounded=0;exitX=0.25;exitY=0;exitDx=0;exitDy=0;entryX=0.25;entryY=1;entryDx=0;entryDy=0;" parent="WIyWlLk6GJQsqaUBKTNV-1" source="VUXAJalb4SLQPzfhnrvk-40" target="VUXAJalb4SLQPzfhnrvk-13" edge="1">
          <mxGeometry relative="1" as="geometry">
            <mxPoint x="460" y="670" as="sourcePoint" />
            <mxPoint x="620" y="670" as="targetPoint" />
          </mxGeometry>
        </mxCell>
        <mxCell id="-JpxgbVJmfge6kv-dIbS-68" value="Istanzia" style="edgeLabel;resizable=0;html=1;align=center;verticalAlign=middle;" parent="-JpxgbVJmfge6kv-dIbS-67" connectable="0" vertex="1">
          <mxGeometry relative="1" as="geometry" />
        </mxCell>
        <mxCell id="-JpxgbVJmfge6kv-dIbS-69" value="1" style="edgeLabel;resizable=0;html=1;align=left;verticalAlign=bottom;" parent="-JpxgbVJmfge6kv-dIbS-67" connectable="0" vertex="1">
          <mxGeometry x="-1" relative="1" as="geometry" />
        </mxCell>
        <mxCell id="-JpxgbVJmfge6kv-dIbS-70" value="1" style="edgeLabel;resizable=0;html=1;align=right;verticalAlign=bottom;" parent="-JpxgbVJmfge6kv-dIbS-67" connectable="0" vertex="1">
          <mxGeometry x="1" relative="1" as="geometry">
            <mxPoint x="-3" y="20" as="offset" />
          </mxGeometry>
        </mxCell>
        <mxCell id="-JpxgbVJmfge6kv-dIbS-71" value="" style="endArrow=classic;html=1;rounded=0;exitX=1;exitY=0.75;exitDx=0;exitDy=0;entryX=0;entryY=0.5;entryDx=0;entryDy=0;" parent="WIyWlLk6GJQsqaUBKTNV-1" source="VUXAJalb4SLQPzfhnrvk-36" target="-JpxgbVJmfge6kv-dIbS-1" edge="1">
          <mxGeometry relative="1" as="geometry">
            <mxPoint x="960" y="1430" as="sourcePoint" />
            <mxPoint x="1110" y="1579" as="targetPoint" />
          </mxGeometry>
        </mxCell>
        <mxCell id="-JpxgbVJmfge6kv-dIbS-72" value="Usa" style="edgeLabel;resizable=0;html=1;align=center;verticalAlign=middle;" parent="-JpxgbVJmfge6kv-dIbS-71" connectable="0" vertex="1">
          <mxGeometry relative="1" as="geometry" />
        </mxCell>
        <mxCell id="-JpxgbVJmfge6kv-dIbS-73" value="1" style="edgeLabel;resizable=0;html=1;align=left;verticalAlign=bottom;" parent="-JpxgbVJmfge6kv-dIbS-71" connectable="0" vertex="1">
          <mxGeometry x="-1" relative="1" as="geometry">
            <mxPoint y="22" as="offset" />
          </mxGeometry>
        </mxCell>
        <mxCell id="-JpxgbVJmfge6kv-dIbS-74" value="1" style="edgeLabel;resizable=0;html=1;align=right;verticalAlign=bottom;" parent="-JpxgbVJmfge6kv-dIbS-71" connectable="0" vertex="1">
          <mxGeometry x="1" relative="1" as="geometry">
            <mxPoint y="-10" as="offset" />
          </mxGeometry>
        </mxCell>
        <mxCell id="Ls257iZbr_JM3UyxlY82-0" value="" style="endArrow=classic;html=1;rounded=0;exitX=0.5;exitY=0;exitDx=0;exitDy=0;" parent="WIyWlLk6GJQsqaUBKTNV-1" source="VUXAJalb4SLQPzfhnrvk-44" target="VUXAJalb4SLQPzfhnrvk-20" edge="1">
          <mxGeometry relative="1" as="geometry">
            <mxPoint x="800" y="840" as="sourcePoint" />
            <mxPoint x="1289.922027290448" y="510" as="targetPoint" />
          </mxGeometry>
        </mxCell>
        <mxCell id="Ls257iZbr_JM3UyxlY82-1" value="Usa ArrayList di" style="edgeLabel;resizable=0;html=1;align=center;verticalAlign=middle;" parent="Ls257iZbr_JM3UyxlY82-0" connectable="0" vertex="1">
          <mxGeometry relative="1" as="geometry" />
        </mxCell>
        <mxCell id="Ls257iZbr_JM3UyxlY82-2" value="1" style="edgeLabel;resizable=0;html=1;align=left;verticalAlign=bottom;" parent="Ls257iZbr_JM3UyxlY82-0" connectable="0" vertex="1">
          <mxGeometry x="-1" relative="1" as="geometry" />
        </mxCell>
        <mxCell id="Ls257iZbr_JM3UyxlY82-3" value="0..1000" style="edgeLabel;resizable=0;html=1;align=right;verticalAlign=bottom;" parent="Ls257iZbr_JM3UyxlY82-0" connectable="0" vertex="1">
          <mxGeometry x="1" relative="1" as="geometry">
            <mxPoint x="29" y="40" as="offset" />
          </mxGeometry>
        </mxCell>
        <mxCell id="Ls257iZbr_JM3UyxlY82-5" value="" style="endArrow=classic;html=1;rounded=0;exitX=0.5;exitY=0;exitDx=0;exitDy=0;entryX=0;entryY=0.333;entryDx=0;entryDy=0;entryPerimeter=0;" parent="WIyWlLk6GJQsqaUBKTNV-1" source="VUXAJalb4SLQPzfhnrvk-36" target="VUXAJalb4SLQPzfhnrvk-20" edge="1">
          <mxGeometry relative="1" as="geometry">
            <mxPoint x="920" y="1140" as="sourcePoint" />
            <mxPoint x="1190" y="460" as="targetPoint" />
          </mxGeometry>
        </mxCell>
        <mxCell id="Ls257iZbr_JM3UyxlY82-6" value="Usa" style="edgeLabel;resizable=0;html=1;align=center;verticalAlign=middle;" parent="Ls257iZbr_JM3UyxlY82-5" connectable="0" vertex="1">
          <mxGeometry relative="1" as="geometry" />
        </mxCell>
        <mxCell id="Ls257iZbr_JM3UyxlY82-7" value="1..*" style="edgeLabel;resizable=0;html=1;align=left;verticalAlign=bottom;" parent="Ls257iZbr_JM3UyxlY82-5" connectable="0" vertex="1">
          <mxGeometry x="-1" relative="1" as="geometry">
            <mxPoint as="offset" />
          </mxGeometry>
        </mxCell>
        <mxCell id="Ls257iZbr_JM3UyxlY82-8" value="0...1000" style="edgeLabel;resizable=0;html=1;align=right;verticalAlign=bottom;" parent="Ls257iZbr_JM3UyxlY82-5" connectable="0" vertex="1">
          <mxGeometry x="1" relative="1" as="geometry">
            <mxPoint x="-3" y="36" as="offset" />
          </mxGeometry>
        </mxCell>
        <mxCell id="Ls257iZbr_JM3UyxlY82-9" value="" style="endArrow=classic;html=1;rounded=0;exitX=0;exitY=0.5;exitDx=0;exitDy=0;entryX=0.994;entryY=0.659;entryDx=0;entryDy=0;entryPerimeter=0;" parent="WIyWlLk6GJQsqaUBKTNV-1" source="VUXAJalb4SLQPzfhnrvk-37" target="VUXAJalb4SLQPzfhnrvk-28" edge="1">
          <mxGeometry relative="1" as="geometry">
            <mxPoint x="1060" y="1290" as="sourcePoint" />
            <mxPoint x="320" y="1110" as="targetPoint" />
          </mxGeometry>
        </mxCell>
        <mxCell id="Ls257iZbr_JM3UyxlY82-10" value="Usa" style="edgeLabel;resizable=0;html=1;align=center;verticalAlign=middle;" parent="Ls257iZbr_JM3UyxlY82-9" connectable="0" vertex="1">
          <mxGeometry relative="1" as="geometry" />
        </mxCell>
        <mxCell id="Ls257iZbr_JM3UyxlY82-11" value="0..*" style="edgeLabel;resizable=0;html=1;align=left;verticalAlign=bottom;" parent="Ls257iZbr_JM3UyxlY82-9" connectable="0" vertex="1">
          <mxGeometry x="-1" relative="1" as="geometry">
            <mxPoint x="-30" y="11" as="offset" />
          </mxGeometry>
        </mxCell>
        <mxCell id="Ls257iZbr_JM3UyxlY82-12" value="0..*" style="edgeLabel;resizable=0;html=1;align=right;verticalAlign=bottom;" parent="Ls257iZbr_JM3UyxlY82-9" connectable="0" vertex="1">
          <mxGeometry x="1" relative="1" as="geometry">
            <mxPoint x="30" y="34" as="offset" />
          </mxGeometry>
        </mxCell>
        <mxCell id="Ls257iZbr_JM3UyxlY82-15" value="" style="endArrow=classic;html=1;rounded=0;exitX=0;exitY=0.5;exitDx=0;exitDy=0;entryX=1.002;entryY=0.718;entryDx=0;entryDy=0;entryPerimeter=0;" parent="WIyWlLk6GJQsqaUBKTNV-1" source="VUXAJalb4SLQPzfhnrvk-41" target="VUXAJalb4SLQPzfhnrvk-28" edge="1">
          <mxGeometry relative="1" as="geometry">
            <mxPoint x="660" y="1010" as="sourcePoint" />
            <mxPoint x="820" y="1010" as="targetPoint" />
          </mxGeometry>
        </mxCell>
        <mxCell id="Ls257iZbr_JM3UyxlY82-16" value="Usa" style="edgeLabel;resizable=0;html=1;align=center;verticalAlign=middle;" parent="Ls257iZbr_JM3UyxlY82-15" connectable="0" vertex="1">
          <mxGeometry relative="1" as="geometry" />
        </mxCell>
        <mxCell id="Ls257iZbr_JM3UyxlY82-17" value="0..*" style="edgeLabel;resizable=0;html=1;align=left;verticalAlign=bottom;" parent="Ls257iZbr_JM3UyxlY82-15" connectable="0" vertex="1">
          <mxGeometry x="-1" relative="1" as="geometry">
            <mxPoint x="-31" as="offset" />
          </mxGeometry>
        </mxCell>
        <mxCell id="Ls257iZbr_JM3UyxlY82-18" value="0..*" style="edgeLabel;resizable=0;html=1;align=right;verticalAlign=bottom;" parent="Ls257iZbr_JM3UyxlY82-15" connectable="0" vertex="1">
          <mxGeometry x="1" relative="1" as="geometry">
            <mxPoint x="45" y="2" as="offset" />
          </mxGeometry>
        </mxCell>
        <mxCell id="Ls257iZbr_JM3UyxlY82-20" value="" style="endArrow=classic;html=1;rounded=0;exitX=0.75;exitY=0;exitDx=0;exitDy=0;entryX=0.413;entryY=1.093;entryDx=0;entryDy=0;entryPerimeter=0;" parent="WIyWlLk6GJQsqaUBKTNV-1" source="VUXAJalb4SLQPzfhnrvk-52" target="VUXAJalb4SLQPzfhnrvk-20" edge="1">
          <mxGeometry relative="1" as="geometry">
            <mxPoint x="810" y="920" as="sourcePoint" />
            <mxPoint x="1246.96" y="510" as="targetPoint" />
          </mxGeometry>
        </mxCell>
        <mxCell id="Ls257iZbr_JM3UyxlY82-21" value="Usa" style="edgeLabel;resizable=0;html=1;align=center;verticalAlign=middle;" parent="Ls257iZbr_JM3UyxlY82-20" connectable="0" vertex="1">
          <mxGeometry relative="1" as="geometry" />
        </mxCell>
        <mxCell id="Ls257iZbr_JM3UyxlY82-22" value="1..." style="edgeLabel;resizable=0;html=1;align=left;verticalAlign=bottom;" parent="Ls257iZbr_JM3UyxlY82-20" connectable="0" vertex="1">
          <mxGeometry x="-1" relative="1" as="geometry" />
        </mxCell>
        <mxCell id="Ls257iZbr_JM3UyxlY82-23" value="1..1000" style="edgeLabel;resizable=0;html=1;align=right;verticalAlign=bottom;" parent="Ls257iZbr_JM3UyxlY82-20" connectable="0" vertex="1">
          <mxGeometry x="1" relative="1" as="geometry">
            <mxPoint x="20" y="50" as="offset" />
          </mxGeometry>
        </mxCell>
        <mxCell id="Ls257iZbr_JM3UyxlY82-24" value="" style="endArrow=classic;html=1;rounded=0;entryX=0.25;entryY=0;entryDx=0;entryDy=0;" parent="WIyWlLk6GJQsqaUBKTNV-1" source="-JpxgbVJmfge6kv-dIbS-5" target="VUXAJalb4SLQPzfhnrvk-48" edge="1">
          <mxGeometry relative="1" as="geometry">
            <mxPoint x="1567.831094049904" y="750" as="sourcePoint" />
            <mxPoint x="1370" y="1480" as="targetPoint" />
          </mxGeometry>
        </mxCell>
        <mxCell id="Ls257iZbr_JM3UyxlY82-25" value="Usa" style="edgeLabel;resizable=0;html=1;align=center;verticalAlign=middle;" parent="Ls257iZbr_JM3UyxlY82-24" connectable="0" vertex="1">
          <mxGeometry relative="1" as="geometry" />
        </mxCell>
        <mxCell id="Ls257iZbr_JM3UyxlY82-26" value="1" style="edgeLabel;resizable=0;html=1;align=left;verticalAlign=bottom;" parent="Ls257iZbr_JM3UyxlY82-24" connectable="0" vertex="1">
          <mxGeometry x="-1" relative="1" as="geometry">
            <mxPoint x="12" y="20" as="offset" />
          </mxGeometry>
        </mxCell>
        <mxCell id="Ls257iZbr_JM3UyxlY82-27" value="1" style="edgeLabel;resizable=0;html=1;align=right;verticalAlign=bottom;" parent="Ls257iZbr_JM3UyxlY82-24" connectable="0" vertex="1">
          <mxGeometry x="1" relative="1" as="geometry" />
        </mxCell>
        <mxCell id="Ls257iZbr_JM3UyxlY82-32" value="" style="endArrow=classic;html=1;rounded=0;exitX=0.75;exitY=0;exitDx=0;exitDy=0;" parent="WIyWlLk6GJQsqaUBKTNV-1" source="VUXAJalb4SLQPzfhnrvk-48" target="VUXAJalb4SLQPzfhnrvk-32" edge="1">
          <mxGeometry relative="1" as="geometry">
            <mxPoint x="730" y="1190" as="sourcePoint" />
            <mxPoint x="1804.5892351274788" y="650" as="targetPoint" />
          </mxGeometry>
        </mxCell>
        <mxCell id="Ls257iZbr_JM3UyxlY82-33" value="Usa" style="edgeLabel;resizable=0;html=1;align=center;verticalAlign=middle;" parent="Ls257iZbr_JM3UyxlY82-32" connectable="0" vertex="1">
          <mxGeometry relative="1" as="geometry" />
        </mxCell>
        <mxCell id="Ls257iZbr_JM3UyxlY82-34" value="1" style="edgeLabel;resizable=0;html=1;align=left;verticalAlign=bottom;" parent="Ls257iZbr_JM3UyxlY82-32" connectable="0" vertex="1">
          <mxGeometry x="-1" relative="1" as="geometry" />
        </mxCell>
        <mxCell id="Ls257iZbr_JM3UyxlY82-35" value="1" style="edgeLabel;resizable=0;html=1;align=right;verticalAlign=bottom;" parent="Ls257iZbr_JM3UyxlY82-32" connectable="0" vertex="1">
          <mxGeometry x="1" relative="1" as="geometry">
            <mxPoint x="-5" y="30" as="offset" />
          </mxGeometry>
        </mxCell>
        <mxCell id="Ls257iZbr_JM3UyxlY82-36" value="" style="endArrow=classic;html=1;rounded=0;entryX=1;entryY=0.5;entryDx=0;entryDy=0;" parent="WIyWlLk6GJQsqaUBKTNV-1" source="VUXAJalb4SLQPzfhnrvk-32" target="VUXAJalb4SLQPzfhnrvk-20" edge="1">
          <mxGeometry relative="1" as="geometry">
            <mxPoint x="1023" y="640" as="sourcePoint" />
            <mxPoint x="1350" y="434.288" as="targetPoint" />
          </mxGeometry>
        </mxCell>
        <mxCell id="Ls257iZbr_JM3UyxlY82-37" value="Usa" style="edgeLabel;resizable=0;html=1;align=center;verticalAlign=middle;" parent="Ls257iZbr_JM3UyxlY82-36" connectable="0" vertex="1">
          <mxGeometry relative="1" as="geometry" />
        </mxCell>
        <mxCell id="Ls257iZbr_JM3UyxlY82-38" value="1" style="edgeLabel;resizable=0;html=1;align=left;verticalAlign=bottom;" parent="Ls257iZbr_JM3UyxlY82-36" connectable="0" vertex="1">
          <mxGeometry x="-1" relative="1" as="geometry">
            <mxPoint x="-20" y="24" as="offset" />
          </mxGeometry>
        </mxCell>
        <mxCell id="Ls257iZbr_JM3UyxlY82-39" value="0..1000" style="edgeLabel;resizable=0;html=1;align=right;verticalAlign=bottom;" parent="Ls257iZbr_JM3UyxlY82-36" connectable="0" vertex="1">
          <mxGeometry x="1" relative="1" as="geometry">
            <mxPoint x="50" y="6" as="offset" />
          </mxGeometry>
        </mxCell>
        <mxCell id="Ls257iZbr_JM3UyxlY82-41" value="" style="endArrow=classic;html=1;rounded=0;exitX=0.75;exitY=0;exitDx=0;exitDy=0;entryX=0;entryY=0.5;entryDx=0;entryDy=0;" parent="WIyWlLk6GJQsqaUBKTNV-1" source="VUXAJalb4SLQPzfhnrvk-19" target="VUXAJalb4SLQPzfhnrvk-24" edge="1">
          <mxGeometry relative="1" as="geometry">
            <mxPoint x="1313" y="510" as="sourcePoint" />
            <mxPoint x="1473" y="510" as="targetPoint" />
          </mxGeometry>
        </mxCell>
        <mxCell id="Ls257iZbr_JM3UyxlY82-42" value="Istanzia" style="edgeLabel;resizable=0;html=1;align=center;verticalAlign=middle;" parent="Ls257iZbr_JM3UyxlY82-41" connectable="0" vertex="1">
          <mxGeometry relative="1" as="geometry" />
        </mxCell>
        <mxCell id="Ls257iZbr_JM3UyxlY82-43" value="1" style="edgeLabel;resizable=0;html=1;align=left;verticalAlign=bottom;" parent="Ls257iZbr_JM3UyxlY82-41" connectable="0" vertex="1">
          <mxGeometry x="-1" relative="1" as="geometry" />
        </mxCell>
        <mxCell id="Ls257iZbr_JM3UyxlY82-44" value="1" style="edgeLabel;resizable=0;html=1;align=right;verticalAlign=bottom;" parent="Ls257iZbr_JM3UyxlY82-41" connectable="0" vertex="1">
          <mxGeometry x="1" relative="1" as="geometry" />
        </mxCell>
        <mxCell id="Ls257iZbr_JM3UyxlY82-45" value="JFrame" style="html=1;whiteSpace=wrap;" parent="WIyWlLk6GJQsqaUBKTNV-1" vertex="1">
          <mxGeometry x="-210" y="375" width="110" height="50" as="geometry" />
        </mxCell>
        <mxCell id="Ls257iZbr_JM3UyxlY82-46" value="JPanel" style="html=1;whiteSpace=wrap;" parent="WIyWlLk6GJQsqaUBKTNV-1" vertex="1">
          <mxGeometry x="880" y="365" width="110" height="50" as="geometry" />
        </mxCell>
        <mxCell id="Ls257iZbr_JM3UyxlY82-48" value="Extends" style="endArrow=block;endSize=16;endFill=0;html=1;rounded=0;exitX=0;exitY=0.5;exitDx=0;exitDy=0;entryX=1;entryY=0.5;entryDx=0;entryDy=0;" parent="WIyWlLk6GJQsqaUBKTNV-1" source="VUXAJalb4SLQPzfhnrvk-13" target="Ls257iZbr_JM3UyxlY82-45" edge="1">
          <mxGeometry width="160" relative="1" as="geometry">
            <mxPoint x="40" y="490" as="sourcePoint" />
            <mxPoint x="200" y="490" as="targetPoint" />
          </mxGeometry>
        </mxCell>
        <mxCell id="Ls257iZbr_JM3UyxlY82-49" value="Extends" style="endArrow=block;endSize=16;endFill=0;html=1;rounded=0;exitX=1;exitY=0.5;exitDx=0;exitDy=0;entryX=0;entryY=0.25;entryDx=0;entryDy=0;" parent="WIyWlLk6GJQsqaUBKTNV-1" source="VUXAJalb4SLQPzfhnrvk-17" target="Ls257iZbr_JM3UyxlY82-46" edge="1">
          <mxGeometry width="160" relative="1" as="geometry">
            <mxPoint x="680" y="380" as="sourcePoint" />
            <mxPoint x="840" y="380" as="targetPoint" />
          </mxGeometry>
        </mxCell>
        <mxCell id="Ls257iZbr_JM3UyxlY82-50" value="Extends" style="endArrow=block;endSize=16;endFill=0;html=1;rounded=0;exitX=1;exitY=0.5;exitDx=0;exitDy=0;entryX=0;entryY=0.75;entryDx=0;entryDy=0;" parent="WIyWlLk6GJQsqaUBKTNV-1" source="VUXAJalb4SLQPzfhnrvk-15" target="Ls257iZbr_JM3UyxlY82-46" edge="1">
          <mxGeometry width="160" relative="1" as="geometry">
            <mxPoint x="680" y="380" as="sourcePoint" />
            <mxPoint x="820" y="400" as="targetPoint" />
          </mxGeometry>
        </mxCell>
        <mxCell id="Ls257iZbr_JM3UyxlY82-51" value="Extends" style="endArrow=block;endSize=16;endFill=0;html=1;rounded=0;exitX=1;exitY=0.5;exitDx=0;exitDy=0;entryX=0.5;entryY=1;entryDx=0;entryDy=0;" parent="WIyWlLk6GJQsqaUBKTNV-1" source="VUXAJalb4SLQPzfhnrvk-16" target="Ls257iZbr_JM3UyxlY82-46" edge="1">
          <mxGeometry width="160" relative="1" as="geometry">
            <mxPoint x="680" y="470" as="sourcePoint" />
            <mxPoint x="840" y="470" as="targetPoint" />
          </mxGeometry>
        </mxCell>
        <mxCell id="Ls257iZbr_JM3UyxlY82-52" value="Extends" style="endArrow=block;endSize=16;endFill=0;html=1;rounded=0;exitX=1;exitY=0.5;exitDx=0;exitDy=0;entryX=0.5;entryY=0;entryDx=0;entryDy=0;" parent="WIyWlLk6GJQsqaUBKTNV-1" source="VUXAJalb4SLQPzfhnrvk-14" target="Ls257iZbr_JM3UyxlY82-46" edge="1">
          <mxGeometry width="160" relative="1" as="geometry">
            <mxPoint x="680" y="270" as="sourcePoint" />
            <mxPoint x="840" y="270" as="targetPoint" />
          </mxGeometry>
        </mxCell>
      </root>
    </mxGraphModel>
  </diagram>
</mxfile>
